<svg xmlns="http://www.w3.org/2000/svg" xmlns:xlink="http://www.w3.org/1999/xlink" viewBox="0 0 312.39 312.39"><defs><style>.cls-1{fill:#ffe1b3;}.cls-2{opacity:0.75;}.cls-3{fill:url(#linear-gradient);}.cls-4{fill:#eaa122;}.cls-5{fill:#fcb31e;}.cls-6{fill:#efe47d;}.cls-7{fill:#faf17e;}.cls-12,.cls-14,.cls-8{fill:none;}.cls-8{stroke:#231f20;stroke-width:10px;}.cls-10,.cls-8,.cls-9{stroke-miterlimit:10;}.cls-10,.cls-11,.cls-9{fill:#303030;}.cls-9{stroke:#e16177;stroke-width:6.97px;}.cls-10,.cls-12,.cls-9{stroke-linecap:round;}.cls-10{stroke:#f16477;stroke-width:6.97px;}.cls-12{stroke:#303030;stroke-linejoin:round;stroke-width:6.17px;}.cls-13{fill:#fff;}</style><linearGradient id="linear-gradient" x1="60.09" y1="146.83" x2="174.18" y2="217.92" gradientUnits="userSpaceOnUse"><stop offset="0" stop-color="#fff"/><stop offset="1"/></linearGradient></defs><title>graphic_cross_sad</title><g id="Layer_2" data-name="Layer 2"><g id="Layer_1-2" data-name="Layer 1"><ellipse class="cls-1" cx="179.63" cy="231.41" rx="92.6" ry="27.3"/><g class="cls-2"><path class="cls-3" d="M171.57,175.94H137.23l-19.16-14.31c-5.47-4.09-17-7.43-25.61-7.43H69.65c-8.62,0-11.19,3.34-5.72,7.43l19.16,14.31H48.75c-8.61,0-11.19,3.34-5.72,7.42L57,193.79c5.47,4.08,17,7.42,25.61,7.42h34.33l42.42,31.68c5.47,4.08,17,7.43,25.6,7.43h22.82c5.27-1.16,8.75-3,8.7-4.71,0-.41-.23-1.49-3-2.72l-42.41-31.68H205.4c8.62,0,11.19-3.34,5.73-7.42l-14-10.43C191.7,179.28,180.18,175.94,171.57,175.94Z"/></g><path class="cls-4" d="M256.07,99.53H221.73V69.33a15.71,15.71,0,0,0-15.66-15.66H183.25a15.71,15.71,0,0,0-15.66,15.66v30.2H133.25a15.71,15.71,0,0,0-15.66,15.66v22a15.71,15.71,0,0,0,15.66,15.67h34.34v66.83a15.71,15.71,0,0,0,15.66,15.66h22.82a15.71,15.71,0,0,0,15.66-15.66V152.85h34.34a15.71,15.71,0,0,0,15.66-15.67v-22A15.71,15.71,0,0,0,256.07,99.53Z"/><path class="cls-5" d="M178.26,152.85v66.83c0,8.61,13.54,15.66,22.15,15.66h5.66a15.71,15.71,0,0,0,15.66-15.66V152.85h34.34a15.71,15.71,0,0,0,15.66-15.67v-22a15.71,15.71,0,0,0-15.66-15.66H221.73V69.33a15.71,15.71,0,0,0-15.66-15.66h-5.66c-8.61,0-22.15,7-22.15,15.66v39"/><path class="cls-6" d="M252.44,110.44H211.11L211,73.19a8.77,8.77,0,0,0-8.63-8.87H186.92a8.77,8.77,0,0,0-8.63,8.87l.08,37.25H136.88a8.77,8.77,0,0,0-8.62,8.87v14.91a8.77,8.77,0,0,0,8.62,8.86h41.49v71.76a8.78,8.78,0,0,0,8.63,8.87h15.49a8.77,8.77,0,0,0,8.62-8.87V143.08h41.33a8.77,8.77,0,0,0,8.62-8.86V119.31A8.77,8.77,0,0,0,252.44,110.44Z"/><path class="cls-7" d="M252.44,110.44H211.11L211,73.19a8.77,8.77,0,0,0-8.63-8.87H191.14a8.88,8.88,0,0,0-2.2,2.3,9.54,9.54,0,0,0-1.31,6.57c0,13.8.06,23.45.09,37.25H146.23a8.77,8.77,0,0,0-8.63,8.87v14.91a8.77,8.77,0,0,0,8.63,8.86h41.49v71.76a11,11,0,0,0,.78,5.29,11.26,11.26,0,0,0,2.42,3.58h11.57a8.77,8.77,0,0,0,8.62-8.87V143.08h41.33a8.77,8.77,0,0,0,8.62-8.86V119.31A8.77,8.77,0,0,0,252.44,110.44Z"/><path class="cls-8" d="M256.07,99.53H221.73V69.33a15.71,15.71,0,0,0-15.66-15.66H183.25a15.71,15.71,0,0,0-15.66,15.66v30.2H133.25a15.71,15.71,0,0,0-15.66,15.66v22a15.71,15.71,0,0,0,15.66,15.67h34.34v66.83a15.71,15.71,0,0,0,15.66,15.66h22.82a15.71,15.71,0,0,0,15.66-15.66V152.85h34.34a15.71,15.71,0,0,0,15.66-15.67v-22A15.71,15.71,0,0,0,256.07,99.53Z"/><path class="cls-9" d="M155.46,129.54h9"/><path class="cls-10" d="M158.56,129.54h7.5"/><path class="cls-9" d="M223.32,130.54H233"/><path class="cls-10" d="M226.56,130.54H233"/><ellipse class="cls-11" cx="179.63" cy="115.81" rx="6.72" ry="7.23"/><ellipse class="cls-11" cx="213.59" cy="115.95" rx="6.72" ry="7.23"/><path class="cls-12" d="M189.64,134.78a8.58,8.58,0,0,1,9.26-.14,8.91,8.91,0,0,1,3.73-.81,8.64,8.64,0,0,1,2.46.38"/><rect class="cls-13" x="201.68" y="185.09" width="6.84" height="22.11" rx="3.42"/><rect class="cls-13" x="201.68" y="210.36" width="6.84" height="6.84" rx="3.42"/><rect class="cls-14" width="312.39" height="312.39"/></g></g></svg>