<?xml version="1.0" encoding="utf-8"?>
<!-- Generator: Adobe Illustrator 23.0.1, SVG Export Plug-In . SVG Version: 6.00 Build 0)  -->
<svg version="1.1" id="Layer_1" xmlns="http://www.w3.org/2000/svg" xmlns:xlink="http://www.w3.org/1999/xlink" x="0px" y="0px"
	 viewBox="0 0 24 24" style="enable-background:new 0 0 24 24;" xml:space="preserve">
<style type="text/css">
	.st0{fill:none;}
	.st1{opacity:0.3;fill:#FFC299;enable-background:new    ;}
	.st2{fill:#FF8533;}
</style>
<path class="st0" d="M0,0h24v24H0V0z"/>
<path class="st1" d="M19,5H5v14h14V5z M12,6c1.6,0,3,1.3,3,3s-1.4,3-3,3s-3-1.4-3-3S10.4,6,12,6z M18,18H6v-1.5c0-2.5,4-3.6,6-3.6
	s6,1.1,6,3.6V18z"/>
<path class="st2" d="M20.7,3.9c-0.1-0.2-0.3-0.4-0.5-0.5c-0.1-0.1-0.2-0.1-0.3-0.2C19.5,3.1,19.3,3,19,3h-4.2c-0.4-1.2-1.5-2-2.8-2
	S9.6,1.8,9.2,3H5C3.9,3,3,3.9,3,5v14c0,1.1,0.9,2,2,2h14c0.3,0,0.5-0.1,0.8-0.2c0.1,0,0.2-0.1,0.3-0.2c0.2-0.1,0.4-0.3,0.5-0.5
	c0.2-0.3,0.3-0.7,0.3-1.1V5C21,4.6,20.9,4.2,20.7,3.9z M12,2.7c0.2,0,0.4,0.1,0.6,0.2c0.1,0.1,0.2,0.3,0.2,0.5
	c0,0.4-0.3,0.8-0.8,0.8s-0.8-0.3-0.8-0.8c0-0.2,0.1-0.4,0.2-0.5C11.6,2.8,11.8,2.7,12,2.7z M19,19H5V5h14V19z M12,12
	c1.6,0,3-1.4,3-3s-1.4-3-3-3S9,7.3,9,9S10.4,12,12,12z M12,10c-0.6,0-1-0.4-1-1s0.4-1,1-1s1,0.4,1,1S12.6,10,12,10z M12,12.9
	c-2,0-6,1.1-6,3.6V18h12v-1.5C18,14,14,12.9,12,12.9z M8.3,16c0.7-0.6,2.4-1.1,3.7-1.1s3,0.6,3.7,1.1H8.3z"/>
</svg>
